<?xml version="1.0" encoding="utf-8"?>
<!-- Generator: Adobe Illustrator 21.0.0, SVG Export Plug-In . SVG Version: 6.00 Build 0)  -->
<svg version="1.1" id="Layer_1" xmlns="http://www.w3.org/2000/svg" xmlns:xlink="http://www.w3.org/1999/xlink" x="0px" y="0px"
	 viewBox="0 0 157.1 44.6" style="enable-background:new 0 0 157.1 44.6;" xml:space="preserve">
<style type="text/css">
	.st0{fill:#363C44;}
	.st1{fill:#363D45;}
</style>
<path class="st0" d="M55.7,26.1h-6.9l-1.3,3.2c-0.1,0.4-0.4,0.5-0.7,0.5c-0.2,0-0.4-0.1-0.5-0.2c-0.2-0.1-0.2-0.3-0.2-0.5
	c0-0.1,0-0.2,0.1-0.3l4.7-11.5c0.2-0.5,0.4-0.8,0.6-1c0.2-0.2,0.5-0.3,0.8-0.3s0.6,0.1,0.8,0.3c0.2,0.2,0.4,0.5,0.6,1l4.7,11.5
	c0,0.1,0.1,0.2,0.1,0.3c0,0.2-0.1,0.4-0.2,0.5s-0.3,0.2-0.5,0.2c-0.4,0-0.6-0.2-0.7-0.5L55.7,26.1z M52.3,17.5l-3,7.5h6L52.3,17.5z"
	/>
<path class="st0" d="M61.6,28.3c-0.1-0.1-0.1-0.1-0.1-0.2c0-0.2,0.1-0.3,0.3-0.5s0.3-0.2,0.5-0.2c0.1,0,0.2,0,0.2,0.1
	c0.4,0.4,1,0.7,1.6,0.9c0.6,0.3,1.3,0.4,2.1,0.4c1,0,1.8-0.2,2.4-0.6s0.9-1,0.9-1.8c0-0.4,0-0.7-0.1-1s-0.3-0.5-0.5-0.7
	s-0.5-0.4-0.8-0.5s-0.7-0.3-1.1-0.4L64.5,23c-1-0.3-1.7-0.7-2.3-1.3c-0.5-0.5-0.8-1.2-0.8-2.1c0-0.7,0.2-1.3,0.6-1.9
	c0.4-0.5,1-1,1.7-1.2c0.7-0.3,1.5-0.4,2.4-0.4s1.7,0.2,2.5,0.5s1.4,0.7,1.8,1c0.1,0.1,0.2,0.3,0.2,0.4c0,0.2-0.1,0.3-0.2,0.4
	s-0.3,0.2-0.4,0.2s-0.3,0-0.4-0.1c-0.4-0.3-0.8-0.5-1.4-0.8c-0.6-0.2-1.3-0.4-2-0.4c-1,0-1.8,0.2-2.4,0.6s-0.9,1-0.9,1.6
	s0.2,1,0.5,1.3c0.4,0.3,0.9,0.6,1.7,0.9l2.5,0.8c0.5,0.2,1,0.4,1.3,0.5c0.4,0.2,0.7,0.4,1,0.7c0.3,0.3,0.6,0.6,0.7,1
	c0.2,0.4,0.2,0.8,0.2,1.3c0,1.3-0.4,2.2-1.3,2.9c-0.9,0.7-2.1,1-3.7,1C64.3,30,62.8,29.4,61.6,28.3z"/>
<path class="st0" d="M74.8,28.3c-0.1-0.1-0.1-0.1-0.1-0.2c0-0.2,0.1-0.3,0.3-0.5c0.2-0.2,0.3-0.2,0.5-0.2c0.1,0,0.2,0,0.2,0.1
	c0.4,0.4,1,0.7,1.6,0.9c0.6,0.3,1.3,0.4,2.1,0.4c1,0,1.8-0.2,2.4-0.6s0.9-1,0.9-1.8c0-0.4,0-0.7-0.1-1s-0.3-0.5-0.5-0.7
	s-0.5-0.4-0.8-0.5s-0.7-0.3-1.1-0.4L77.7,23c-1-0.3-1.7-0.7-2.3-1.3c-0.5-0.5-0.8-1.2-0.8-2.1c0-0.7,0.2-1.3,0.6-1.9
	c0.4-0.5,1-1,1.7-1.2c0.7-0.3,1.5-0.4,2.4-0.4s1.7,0.2,2.5,0.5s1.4,0.7,1.8,1c0.1,0.1,0.2,0.3,0.2,0.4c0,0.2-0.1,0.3-0.2,0.4
	s-0.3,0.2-0.4,0.2s-0.3,0-0.4-0.1c-0.4-0.3-0.8-0.5-1.4-0.8c-0.6-0.2-1.3-0.4-2-0.4c-1,0-1.8,0.2-2.4,0.6s-0.9,1-0.9,1.6
	s0.2,1,0.5,1.3c0.4,0.3,0.9,0.6,1.7,0.9l2.5,0.8c0.5,0.2,1,0.4,1.3,0.5c0.4,0.2,0.7,0.4,1,0.7c0.3,0.3,0.6,0.6,0.7,1
	C84,25.1,84,25.5,84,26c0,1.3-0.4,2.2-1.3,2.9c-0.9,0.7-2.1,1-3.7,1C77.5,30,76,29.4,74.8,28.3z"/>
<path class="st0" d="M88.4,29.6c-0.2-0.2-0.2-0.3-0.2-0.5V16.8c0-0.2,0.1-0.4,0.2-0.5c0.1-0.2,0.3-0.2,0.5-0.2h7.2
	c0.2,0,0.4,0.1,0.5,0.2s0.2,0.3,0.2,0.4c0,0.2-0.1,0.3-0.2,0.4s-0.3,0.2-0.5,0.2h-6.4v4.8h6.1c0.2,0,0.4,0.1,0.5,0.2
	s0.2,0.3,0.2,0.4c0,0.2-0.1,0.3-0.2,0.4s-0.3,0.2-0.5,0.2h-6.1v5.2h6.7c0.2,0,0.4,0.1,0.5,0.2s0.2,0.3,0.2,0.4
	c0,0.2-0.1,0.3-0.2,0.4s-0.3,0.2-0.5,0.2H89C88.8,29.8,88.6,29.7,88.4,29.6z"/>
<path class="st0" d="M108,29.3c-0.2-0.1-0.3-0.3-0.4-0.5l-5-10.9v11.3c0,0.2-0.1,0.3-0.2,0.4s-0.3,0.2-0.5,0.2s-0.4-0.1-0.5-0.2
	s-0.2-0.2-0.2-0.4v-12c0-0.3,0.1-0.6,0.4-0.8c0.2-0.2,0.5-0.3,0.8-0.3c0.6,0,1,0.3,1.3,1l4.9,10.7l4.9-10.7c0.3-0.6,0.7-1,1.3-1
	c0.3,0,0.6,0.1,0.8,0.3c0.2,0.2,0.4,0.5,0.4,0.8v12c0,0.2-0.1,0.3-0.2,0.4s-0.3,0.2-0.5,0.2s-0.4-0.1-0.5-0.2s-0.2-0.2-0.2-0.4V17.9
	l-5,10.9c-0.1,0.2-0.2,0.4-0.4,0.5c-0.2,0.1-0.3,0.2-0.5,0.2C108.3,29.5,108.1,29.4,108,29.3z"/>
<path class="st0" d="M120.6,29.6c-0.2-0.1-0.2-0.3-0.2-0.5V16.8c0-0.2,0.1-0.4,0.2-0.5c0.2-0.1,0.3-0.2,0.6-0.2h3.7
	c3.2,0,4.8,1.2,4.8,3.5c0,0.8-0.3,1.5-0.8,2.1s-1.2,0.9-2.1,1l0,0c1.1,0.1,1.9,0.4,2.5,1c0.6,0.6,0.9,1.4,0.9,2.4
	c0,0.5-0.1,0.9-0.3,1.4c-0.2,0.4-0.4,0.8-0.8,1.2c-0.4,0.4-0.8,0.6-1.4,0.8c-0.6,0.2-1.3,0.3-2.1,0.3h-4.5
	C120.9,29.8,120.7,29.7,120.6,29.6z M124.7,22.1c1.1,0,2-0.2,2.5-0.6c0.6-0.4,0.8-1.1,0.8-1.9c0-0.4-0.1-0.7-0.2-1s-0.3-0.5-0.5-0.7
	s-0.4-0.3-0.7-0.4c-0.3-0.1-0.6-0.2-0.9-0.2s-0.6,0-1,0h-3v4.9L124.7,22.1L124.7,22.1z M125.2,28.6c1.1,0,2-0.2,2.5-0.6
	s0.8-1.1,0.8-2.1c0-0.9-0.3-1.6-1-2c-0.6-0.4-1.6-0.6-3-0.6h-2.7v5.3C121.8,28.6,125.2,28.6,125.2,28.6z"/>
<path class="st0" d="M133.9,29.6c-0.2-0.1-0.2-0.3-0.2-0.5V16.8c0-0.2,0.1-0.4,0.2-0.5c0.2-0.1,0.3-0.2,0.6-0.2
	c0.2,0,0.4,0.1,0.5,0.2c0.2,0.1,0.2,0.3,0.2,0.5v11.8h6.4c0.2,0,0.4,0.1,0.5,0.2s0.2,0.3,0.2,0.4c0,0.2-0.1,0.3-0.2,0.4
	c-0.1,0.1-0.3,0.2-0.5,0.2h-7.1C134.2,29.8,134,29.7,133.9,29.6z"/>
<path class="st0" d="M153.6,26.1h-6.9l-1.3,3.2c-0.1,0.4-0.4,0.5-0.7,0.5c-0.2,0-0.4-0.1-0.5-0.2c-0.2-0.1-0.2-0.3-0.2-0.5
	c0-0.1,0-0.2,0.1-0.3l4.7-11.5c0.2-0.5,0.4-0.8,0.6-1c0.2-0.2,0.5-0.3,0.8-0.3s0.6,0.1,0.8,0.3c0.2,0.2,0.4,0.5,0.6,1l4.7,11.5
	c0,0.1,0.1,0.2,0.1,0.3c0,0.2-0.1,0.4-0.2,0.5s-0.3,0.2-0.5,0.2c-0.4,0-0.6-0.2-0.7-0.5L153.6,26.1z M150.2,17.5l-3,7.5h6
	L150.2,17.5z"/>
<path class="st1" d="M36.2,8.2L23.6,0.9c-1-0.6-2.3-0.9-3.8-0.9C18.4,0,17,0.3,16,0.9L3.6,8.2C1.5,9.4,0,12.3,0,14.7v14.6
	c0,2.4,1.5,5.3,3.6,6.5l12.5,7.3c1,0.6,2.3,0.9,3.7,0.9c1.4,0,2.8-0.3,3.7-0.9l12.6-7.3c2-1.2,3.8-4.2,3.8-6.5V14.7
	C40,12.3,38.3,9.4,36.2,8.2z M28.9,29.3c-0.1,0.1-0.3,0.1-0.4,0.1c-0.3,0-0.6-0.2-0.8-0.5l-5-10l-5,10c-0.2,0.3-0.5,0.5-0.8,0.5
	c-0.1,0-0.3,0-0.4-0.1c-0.4-0.2-0.6-0.7-0.4-1.2L21.7,17l-1.9-3.8L11.9,29c-0.2,0.4-0.7,0.6-1.2,0.4c-0.4-0.2-0.6-0.7-0.4-1.2
	L19,10.8c0.1-0.3,0.4-0.5,0.8-0.5s0.6,0.2,0.8,0.5l2.1,4.2l1,1.9l5.6,11.2C29.5,28.6,29.3,29.1,28.9,29.3z"/>
</svg>
