<?xml version="1.0" encoding="UTF-8" standalone="no"?>
<svg width="568px" height="182px" viewBox="0 0 568 182" version="1.1" xmlns="http://www.w3.org/2000/svg" xmlns:xlink="http://www.w3.org/1999/xlink">
    <!-- Generator: Sketch 39.1 (31720) - http://www.bohemiancoding.com/sketch -->
    <title>CF_logo_RGB_POS</title>
    <desc>Created with Sketch.</desc>
    <defs></defs>
    <g id="Page-1" stroke="none" stroke-width="1" fill="none" fill-rule="evenodd">
        <g id="CF_logo_RGB_POS">
            <g id="Group" transform="translate(102.000000, 54.000000)" fill="#32323C">
                <path d="M23,24.7 C33.4,24.7 38.7,30.1 41.6,37.1 L31.9,40.8 C30.7,36 27.6,33.1 22.5,33.1 C15,33.1 11.7,40.4 11.7,48.3 C11.7,56.1 14.8,63.4 22.6,63.4 C27.9,63.4 30.3,60.3 31.9,56.2 L41.8,60 C38.2,66.6 32.9,71.9 22.8,71.9 C9.3,71.9 0.7,62.5 0.7,48.3 C0.6,34.2 9.2,24.7 23,24.7 L23,24.7 Z" id="Shape"></path>
                <path d="M86.7,70.7 L76.5,70.7 L76.5,64 C73.8,68.6 69.5,71.9 62.6,71.9 C54.1,71.9 47,66.9 47,56.9 L47,25.9 L57.7,25.9 L57.7,54.3 C57.7,60.7 61.7,63.2 65.8,63.2 C71,63.2 76,58.6 76,49.7 L76,26 L86.7,26 L86.7,70.7 L86.7,70.7 Z" id="Shape"></path>
                <path d="M198,60.9 C194.5,67.6 188.3,72 178.9,72 C165.2,72 156.7,62.5 156.7,48.3 C156.7,34.2 165.4,24.8 178.5,24.8 C192.9,24.8 199.6,35.7 199.6,47.9 L199.6,50.9 L167.6,50.9 C167.9,57.6 170.8,64 178.8,64 C184.3,64 186.9,61.2 188.7,57.3 L198,60.9 L198,60.9 Z M167.8,43.7 L188.8,43.7 C188.5,36.6 184.4,32.5 178.4,32.5 C172.1,32.5 168.4,37.2 167.8,43.7 L167.8,43.7 Z" id="Shape"></path>
                <path d="M206.1,25.9 L216.4,25.9 L216.4,32.7 C219,28.1 223.5,24.7 230.5,24.7 C239.2,24.7 246.4,29.7 246.4,39.8 L246.4,70.7 L235.6,70.7 L235.6,42.3 C235.6,35.9 231.4,33.4 227.3,33.4 C221.9,33.4 216.9,38 216.9,46.9 L216.9,70.6 L206.1,70.6 L206.1,25.9 L206.1,25.9 Z" id="Shape"></path>
                <path d="M274.6,24.7 C285,24.7 290.3,30.1 293.2,37.1 L283.5,40.8 C282.3,36 279.2,33.1 274.1,33.1 C266.6,33.1 263.3,40.4 263.3,48.3 C263.3,56.1 266.4,63.4 274.2,63.4 C279.5,63.4 281.9,60.3 283.5,56.2 L293.4,60 C289.8,66.6 284.5,71.9 274.4,71.9 C260.9,71.9 252.3,62.5 252.3,48.3 C252.2,34.2 260.7,24.7 274.6,24.7 L274.6,24.7 Z" id="Shape"></path>
                <path d="M364.1,13.6 C366.9,13.6 369.2,14.9 370.5,16.2 L373.8,7.3 C371.2,5.7 367,4.8 363,4.8 C355.3,4.8 347,9 347,21.5 L347,26 L328.7,26 C328.7,26 318.7,53.3 317.1,58.7 L317,58.7 C315.2,53.3 305.2,26 305.2,26 L294.2,26 L311.8,70.9 L304.4,89.7 L314.9,89.7 L336,33.9 L347.1,33.9 L347.1,70.8 L357.8,70.8 L357.8,33.9 L365.9,33.9 L368.9,26 L357.8,26 L357.8,21.4 C357.8,15.8 360.4,13.6 364.1,13.6 L364.1,13.6 Z" id="Shape"></path>
                <path d="M399.2,64.9 C396.3,69.1 392,71.9 384.9,71.9 C375.9,71.9 369.9,67 369.9,59.1 C369.9,47.1 383.7,43.5 399,43.5 L399,40.7 C399,36 396.4,32.7 390.8,32.7 C385.1,32.7 382.4,35.9 382.3,39.7 L371.9,38.2 C372.8,29.4 381.3,24.7 391.2,24.7 C402,24.7 409.5,30.2 409.5,41 L409.5,64.6 C409.5,67.3 410,69 410.5,70.7 L400.1,70.7 C399.7,69.9 399.2,67.4 399.2,64.9 L399.2,64.9 Z M399,54.2 L399,50.5 C387.9,50.5 380.5,52.6 380.5,58.5 C380.5,62.1 383.6,64 387.9,64 C393.5,64 399,60.4 399,54.2 L399,54.2 Z" id="Shape"></path>
                <polygon id="Shape" points="417.7 25.9 428.5 25.9 428.5 70.7 417.7 70.7"></polygon>
                <path d="M462.2,34.8 C461,34.2 459.6,33.9 458.3,33.9 C453.1,33.9 447.4,38.4 447.4,48.1 L447.4,70.7 L436.6,70.7 L436.6,25.9 L446.7,25.9 L446.7,33.2 C449.2,27.5 453.8,24.7 459.9,24.7 C461.7,24.7 463.8,25 465.6,25.7 L462.2,34.8 L462.2,34.8 Z" id="Shape"></path>
                <path d="M120.5,34.8 C119.3,34.2 117.9,33.9 116.6,33.9 C111.4,33.9 105.7,38.4 105.7,48.1 L105.7,70.7 L94.9,70.7 L94.9,25.9 L105,25.9 L105,33.2 C107.5,27.5 112.1,24.7 118.2,24.7 C120,24.7 122.1,25 123.9,25.7 L120.5,34.8 L120.5,34.8 Z" id="Shape"></path>
                <path d="M153.6,34.8 C152.4,34.2 151,33.9 149.7,33.9 C144.5,33.9 138.8,38.4 138.8,48.1 L138.8,70.7 L128,70.7 L128,25.9 L138.1,25.9 L138.1,33.2 C140.6,27.5 145.2,24.7 151.3,24.7 C153.1,24.7 155.2,25 157,25.7 L153.6,34.8 L153.6,34.8 Z" id="Shape"></path>
                <circle id="Oval" transform="translate(423.076400, 9.924200) rotate(-59.999272) translate(-423.076400, -9.924200) " cx="423.076552" cy="9.9243518" r="6.9"></circle>
            </g>
            <g id="Group" fill="#589BB9">
                <circle id="Oval" cx="33.7" cy="148.6" r="32.9"></circle>
                <circle id="Oval" cx="80.2" cy="25.5" r="24.7"></circle>
                <circle id="Oval" cx="54.1" cy="94.7" r="16.5"></circle>
                <circle id="Oval" cx="65.7" cy="63.9" r="8.2"></circle>
            </g>
        </g>
    </g>
</svg>