<?xml version="1.0" encoding="UTF-8"?>
<svg width="417px" height="134px" viewBox="0 0 417 134" version="1.1" xmlns="http://www.w3.org/2000/svg" xmlns:xlink="http://www.w3.org/1999/xlink">
    <!-- Generator: Sketch 42 (36781) - http://www.bohemiancoding.com/sketch -->
    <title>Logo ezora FC</title>
    <desc>Created with Sketch.</desc>
    <defs></defs>
    <g id="Logo" stroke="none" stroke-width="1" fill="none" fill-rule="evenodd">
        <g id="Logo-ezora-FC">
            <g id="Logo-FC-ezora" transform="translate(19.000000, 12.000000)">
                <path d="M57.0616429,6.46170716 C59.8253686,4.8317195 62.3711348,4.71529181 64.0465163,7.57504695 C65.5112038,10.0753316 72.2882892,21.7297434 72.2882892,21.7297434 C72.2882892,21.7210113 85.5155208,14.3293083 85.5155208,14.3293083 L106.935121,2.22082854 C112.76045,-0.656390758 118.992637,-1.1308336 118.957764,3.16389283 C118.947592,4.16517097 118.421583,5.3745636 116.496275,6.50827824 C111.086522,9.67511142 73.439115,31.6770342 70.1159601,33.5951804 C68.9070118,34.2937465 67.5106183,34.9151793 66.1229432,34.9661165 C64.1947288,35.0403391 62.2795919,34.0157754 60.9064474,30.5884353 C57.3522555,21.7006365 54.0552558,13.461922 54.0552558,13.461922 C52.6094582,9.86139572 54.2427009,8.1222571 57.0616429,6.46170716" id="Fill-1" fill="#FC4750"></path>
                <path d="M71.8595896,37.5186965 C75.7988432,35.1770446 113.315474,12.6002601 116.006547,11.0066561 C119.858617,8.73049474 125.493595,7.00154354 128.742643,8.83236897 C129.990824,9.53530115 130.755135,10.7505152 130.576409,12.0501393 C130.412213,13.2740854 130.064931,14.4383623 127.572928,15.8762442 C122.895518,18.5948308 84.387898,42.8452634 84.387898,42.8452634 C84.387898,42.8452634 108.312579,83.8409085 111.253578,88.9637269 C112.225677,90.6592051 113.799344,93.4869426 113.777548,97.474591 C113.720879,106.964903 105.192853,110.600358 99.3268378,110.56834 C93.2544879,110.542144 90.5895705,104.91432 89.1583036,101.497168 L67.8433238,48.5633183 C65.4123495,42.4595966 67.3144089,40.2125422 71.8595896,37.5186965" id="Fill-3" fill="#FB8257"></path>
                <path d="M43.121141,14.5322603 C46.6273818,12.3696159 48.4596941,13.0536286 49.5988954,16.2670328 C51.3832567,21.3112625 54.4477663,30.7433608 55.6073105,34.330789 C56.7639486,37.9240386 56.5154749,41.802536 50.9618684,45.0799755 C45.5317723,48.2875584 8.36968846,70.0930094 5.425783,71.7666575 C1.74953385,73.8536238 0.00876448207,71.6968009 4.61046263e-05,69.6476735 C-0.0173906503,65.4562767 4.9128518,60.6580005 11.8163537,56.4855231 C14.8445368,54.6546977 42.5951322,38.7826928 42.5951322,38.7826928 C42.5951322,38.7826928 40.2368111,25.9610934 39.6032757,22.4915482 C38.9770056,19.0714848 39.7587534,16.6003071 43.121141,14.5322603" id="Fill-5" fill="#FEBE3E"></path>
                <path d="M166.401046,48.3483943 C166.401046,35.9954164 161.709106,31.1854974 152.102907,31.1854974 C142.717574,31.1854974 137.480735,36.5411712 137.480735,48.3483943 L137.480735,49.3336637 L166.401046,49.3336637 L166.401046,48.3483943 Z M174.044157,56.6569654 L137.480735,56.6569654 L137.480735,58.1879895 C137.480735,71.1944179 142.612953,76.0057922 152.652165,76.0057922 C158.98316,76.0057922 167.059284,75.567733 172.075257,74.8022209 L172.624515,74.8022209 C173.496353,74.8022209 174.36819,75.2359141 174.36819,76.3361558 L174.36819,80.0487437 C174.36819,81.4691616 173.930818,82.2346736 172.190049,82.5606712 C165.963674,83.7671531 159.961072,84.4220589 152.652165,84.4220589 C140.102061,84.4220589 127.875989,78.5177196 127.875989,58.1879895 L127.875989,48.3483943 C127.875989,32.7150662 136.499918,22.7692308 152.102907,22.7692308 C168.040101,22.7692308 176.116225,32.8256725 176.116225,48.3483943 L176.116225,54.2527336 C176.116225,55.6702407 175.350461,56.6569654 174.044157,56.6569654 L174.044157,56.6569654 Z" id="Fill-7" fill="#414756"></path>
                <path d="M222.43597,83.841208 L189.473238,83.841208 C184.781298,83.841208 182.815303,80.8912214 182.815303,77.8277178 L182.815303,75.7509389 C182.815303,72.6874353 183.469182,71.0472602 185.324743,68.6473944 L213.485102,33.5560886 C213.704515,33.2271803 213.921021,32.8968168 213.921021,32.5708192 C213.921021,32.1342154 213.704515,31.8067625 212.829771,31.8067625 L186.308467,31.8067625 C185.10969,31.8067625 184.127419,30.8214932 184.127419,29.6193773 L184.127419,25.9038786 C184.127419,24.7017627 185.10969,23.7179487 186.308467,23.7179487 L218.397908,23.7179487 C222.871889,23.7179487 224.506584,25.7947276 224.506584,29.0750778 L224.506584,31.6961562 C224.506584,33.991237 223.742273,35.6328675 221.997145,37.7096464 L193.291887,73.6770707 C192.860327,74.1107638 192.749895,74.5459123 192.749895,74.8806419 C192.749895,75.41912 192.860327,75.7509389 193.621732,75.7509389 L222.43597,75.7509389 C223.633294,75.7509389 224.617017,76.7332975 224.617017,77.9354134 L224.617017,81.6523674 C224.617017,82.8559387 223.633294,83.841208 222.43597,83.841208" id="Fill-9" fill="#414756"></path>
                <path d="M268.659783,49.4413593 C268.659783,38.2934079 264.187255,31.1840421 253.934443,31.1840421 C243.786252,31.1840421 239.307912,38.1828016 239.307912,49.4413593 L239.307912,57.748475 C239.307912,68.8978817 243.67146,76.0057922 253.934443,76.0057922 C264.076822,76.0057922 268.659783,69.008488 268.659783,57.748475 L268.659783,49.4413593 Z M253.934443,84.4206035 C237.886817,84.4206035 229.703166,73.8198623 229.703166,57.748475 L229.703166,49.4413593 C229.703166,33.3728827 237.886817,22.7692308 253.934443,22.7692308 C269.970446,22.7692308 278.270341,33.3728827 278.270341,49.4413593 L278.270341,57.748475 C278.270341,73.8198623 269.970446,84.4206035 253.934443,84.4206035 L253.934443,84.4206035 Z" id="Fill-11" fill="#414756"></path>
                <path d="M311.676297,31.0763465 C306.653058,31.0763465 302.070098,32.386158 296.6153,35.6679635 L296.6153,81.4691616 C296.6153,82.5606712 295.631576,83.6580021 294.429893,83.6580021 L289.082622,83.6580021 C287.991372,83.6580021 287.010554,82.6727328 287.010554,81.4691616 L287.010554,25.7206727 C287.010554,24.5185568 287.880939,23.5347428 289.082622,23.5347428 L294.213387,23.5347428 C295.410711,23.5347428 296.286908,24.5185568 296.286908,25.7206727 L296.286908,28.0157536 C301.740253,24.1896486 306.762038,22.7692308 311.676297,22.7692308 C313.202013,22.7692308 313.966324,23.4241365 313.966324,24.7368587 L313.966324,29.2207802 C313.966324,30.4214407 313.202013,31.0763465 311.676297,31.0763465" id="Fill-13" fill="#414756"></path>
                <path d="M349.330388,54.5787311 L341.255718,54.5787311 C328.047376,54.5787311 324.555666,57.5316284 324.555666,65.2929893 L324.555666,66.6057115 C324.555666,74.4718574 328.265335,76.5500916 334.594877,76.5500916 C339.618116,76.5500916 344.08919,75.0219782 349.330388,72.1796872 L349.330388,54.5787311 Z M356.75118,83.6594575 L351.732301,83.6594575 C350.527712,83.6594575 349.546895,82.6741882 349.546895,81.4706169 L349.546895,79.0649298 C344.30715,82.126978 338.853805,84.4220589 332.73641,84.4220589 C323.465868,84.4220589 314.953826,80.3791073 314.953826,66.7163178 L314.953826,65.4035956 C314.953826,53.5949171 321.826813,47.6920332 341.255718,47.6920332 L349.330388,47.6920332 L349.330388,43.3216288 C349.330388,34.1383947 346.162711,30.9686509 337.653575,30.9686509 C330.558268,30.9686509 325.319977,31.4081654 320.95207,31.8418585 L320.41153,31.8418585 C319.4249,31.8418585 318.441177,31.5144057 318.441177,30.0939878 L318.441177,26.2693382 C318.441177,25.065767 319.208394,24.4108612 320.735563,24.1911039 C325.209544,23.4255919 330.232782,22.7692308 337.653575,22.7692308 C352.819192,22.7692308 358.933681,30.4228961 358.933681,43.3216288 L358.933681,81.4706169 C358.933681,82.6741882 357.95577,83.6594575 356.75118,83.6594575 L356.75118,83.6594575 Z" id="Fill-15" fill="#414756"></path>
                <path d="M166.401046,48.3483943 C166.401046,35.9954164 161.709106,31.1854974 152.102907,31.1854974 C142.717574,31.1854974 137.480735,36.5411712 137.480735,48.3483943 L137.480735,49.3336637 L166.401046,49.3336637 L166.401046,48.3483943 Z M174.044157,56.6569654 L137.480735,56.6569654 L137.480735,58.1879895 C137.480735,71.1944179 142.612953,76.0057922 152.652165,76.0057922 C158.98316,76.0057922 167.059284,75.567733 172.075257,74.8022209 L172.624515,74.8022209 C173.496353,74.8022209 174.36819,75.2359141 174.36819,76.3361558 L174.36819,80.0487437 C174.36819,81.4691616 173.930818,82.2346736 172.190049,82.5606712 C165.963674,83.7671531 159.961072,84.4220589 152.652165,84.4220589 C140.102061,84.4220589 127.875989,78.5177196 127.875989,58.1879895 L127.875989,48.3483943 C127.875989,32.7150662 136.499918,22.7692308 152.102907,22.7692308 C168.040101,22.7692308 176.116225,32.8256725 176.116225,48.3483943 L176.116225,54.2527336 C176.116225,55.6702407 175.350461,56.6569654 174.044157,56.6569654 L174.044157,56.6569654 Z" id="Fill-17" fill="#4B505E"></path>
                <path d="M222.43597,83.841208 L189.473238,83.841208 C184.781298,83.841208 182.815303,80.8912214 182.815303,77.8277178 L182.815303,75.7509389 C182.815303,72.6874353 183.469182,71.0472602 185.324743,68.6473944 L213.485102,33.5560886 C213.704515,33.2271803 213.921021,32.8968168 213.921021,32.5708192 C213.921021,32.1342154 213.704515,31.8067625 212.829771,31.8067625 L186.308467,31.8067625 C185.10969,31.8067625 184.127419,30.8214932 184.127419,29.6193773 L184.127419,25.9038786 C184.127419,24.7017627 185.10969,23.7179487 186.308467,23.7179487 L218.397908,23.7179487 C222.871889,23.7179487 224.506584,25.7947276 224.506584,29.0750778 L224.506584,31.6961562 C224.506584,33.991237 223.742273,35.6328675 221.997145,37.7096464 L193.291887,73.6770707 C192.860327,74.1107638 192.749895,74.5459123 192.749895,74.8806419 C192.749895,75.41912 192.860327,75.7509389 193.621732,75.7509389 L222.43597,75.7509389 C223.633294,75.7509389 224.617017,76.7332975 224.617017,77.9354134 L224.617017,81.6523674 C224.617017,82.8559387 223.633294,83.841208 222.43597,83.841208" id="Fill-19" fill="#4B505E"></path>
                <path d="M268.659783,49.4413593 C268.659783,38.2934079 264.187255,31.1840421 253.934443,31.1840421 C243.786252,31.1840421 239.307912,38.1828016 239.307912,49.4413593 L239.307912,57.748475 C239.307912,68.8978817 243.67146,76.0057922 253.934443,76.0057922 C264.076822,76.0057922 268.659783,69.008488 268.659783,57.748475 L268.659783,49.4413593 Z M253.934443,84.4206035 C237.886817,84.4206035 229.703166,73.8198623 229.703166,57.748475 L229.703166,49.4413593 C229.703166,33.3728827 237.886817,22.7692308 253.934443,22.7692308 C269.970446,22.7692308 278.270341,33.3728827 278.270341,49.4413593 L278.270341,57.748475 C278.270341,73.8198623 269.970446,84.4206035 253.934443,84.4206035 L253.934443,84.4206035 Z" id="Fill-21" fill="#4B505E"></path>
                <path d="M311.676297,31.0763465 C306.653058,31.0763465 302.070098,32.386158 296.6153,35.6679635 L296.6153,81.4691616 C296.6153,82.5606712 295.631576,83.6580021 294.429893,83.6580021 L289.082622,83.6580021 C287.991372,83.6580021 287.010554,82.6727328 287.010554,81.4691616 L287.010554,25.7206727 C287.010554,24.5185568 287.880939,23.5347428 289.082622,23.5347428 L294.213387,23.5347428 C295.410711,23.5347428 296.286908,24.5185568 296.286908,25.7206727 L296.286908,28.0157536 C301.740253,24.1896486 306.762038,22.7692308 311.676297,22.7692308 C313.202013,22.7692308 313.966324,23.4241365 313.966324,24.7368587 L313.966324,29.2207802 C313.966324,30.4214407 313.202013,31.0763465 311.676297,31.0763465" id="Fill-23" fill="#4B505E"></path>
                <path d="M349.330388,54.5787311 L341.255718,54.5787311 C328.047376,54.5787311 324.555666,57.5316284 324.555666,65.2929893 L324.555666,66.6057115 C324.555666,74.4718574 328.265335,76.5500916 334.594877,76.5500916 C339.618116,76.5500916 344.08919,75.0219782 349.330388,72.1796872 L349.330388,54.5787311 Z M356.75118,83.6594575 L351.732301,83.6594575 C350.527712,83.6594575 349.546895,82.6741882 349.546895,81.4706169 L349.546895,79.0649298 C344.30715,82.126978 338.853805,84.4220589 332.73641,84.4220589 C323.465868,84.4220589 314.953826,80.3791073 314.953826,66.7163178 L314.953826,65.4035956 C314.953826,53.5949171 321.826813,47.6920332 341.255718,47.6920332 L349.330388,47.6920332 L349.330388,43.3216288 C349.330388,34.1383947 346.162711,30.9686509 337.653575,30.9686509 C330.558268,30.9686509 325.319977,31.4081654 320.95207,31.8418585 L320.41153,31.8418585 C319.4249,31.8418585 318.441177,31.5144057 318.441177,30.0939878 L318.441177,26.2693382 C318.441177,25.065767 319.208394,24.4108612 320.735563,24.1911039 C325.209544,23.4255919 330.232782,22.7692308 337.653575,22.7692308 C352.819192,22.7692308 358.933681,30.4228961 358.933681,43.3216288 L358.933681,81.4706169 C358.933681,82.6741882 357.95577,83.6594575 356.75118,83.6594575 L356.75118,83.6594575 Z" id="Fill-25" fill="#4B505E"></path>
            </g>
        </g>
    </g>
</svg>