<svg xmlns="http://www.w3.org/2000/svg" width="520" height="217" viewBox="0 0 520 217"><path fill="#989897" d="M80.124 96.897H37.575v112.84H9.828V65.445c0-34.001 23.43-51.004 70.296-51.004v27.222c-17.092 0-28.897 2.397-35.397 7.202-4.762 3.563-7.152 9.077-7.152 16.543v4.262h42.549v27.227zm87.478 112.84c-46.878 0-70.306-16.903-70.306-50.74V14.446h27.492v144.785c0 7.224 2.465 12.611 7.396 16.138 6.525 4.765 18.319 7.152 35.418 7.152v27.216z"/><path fill="#3FA9F5" d="M310.568 139.833c0 46.619-21.846 69.904-65.545 69.904-43.514 0-65.274-23.285-65.274-69.904V69.677h27.488v70.294c0 14.268 2.384 24.585 7.129 30.927 5.821 7.742 16.039 11.623 30.657 11.623 14.621 0 24.85-3.881 30.665-11.623 4.746-6.342 7.129-16.659 7.129-30.927V69.677h27.751v70.156zm21.406-70.164h27.48v140.068h-27.48z"/><path fill="#989897" d="M509.828 139.703c0 46.867-21.763 70.297-65.273 70.297-43.698 0-65.547-23.43-65.547-70.297 0-46.675 21.849-70.026 65.547-70.026h37.789V14.446h27.484v125.257zm-27.484 0V96.897h-37.789c-14.634 0-24.849 3.896-30.661 11.689-4.752 6.385-7.132 16.763-7.132 31.116 0 14.368 2.38 24.727 7.132 31.117 5.813 7.969 16.027 11.96 30.661 11.96 14.615 0 24.839-3.991 30.66-11.96 4.743-6.389 7.129-16.748 7.129-31.116"/><path fill="#3FA9F5" d="M346.046 52.977c-13.352 0-24.216-10.857-24.216-24.203 0-13.357 10.864-24.222 24.216-24.222 13.33 0 24.173 10.865 24.173 24.222 0 13.346-10.843 24.203-24.173 24.203zm0-41.505c-9.536 0-17.295 7.761-17.295 17.302 0 9.53 7.759 17.283 17.295 17.283 9.513 0 17.254-7.753 17.254-17.283 0-9.541-7.741-17.302-17.254-17.302z"/></svg>