<svg xmlns="http://www.w3.org/2000/svg" width="101" height="29.3" viewBox="0 0 101 29.3"><path fill="none" d="M87.8 15.1c-.4-.6-.9-1-1.4-1.3-.6-.3-1.2-.4-1.8-.4h-.1c-.7 0-1.4.2-2 .6-.6.4-1.1.9-1.4 1.5-.3.6-.5 1.2-.5 1.9v.2c0 .7.2 1.3.6 1.8.4.6.9 1 1.5 1.4.6.3 1.1.4 1.7.4h.2c1 0 1.9-.5 2.7-1.4.7-.8 1-1.6 1-2.5v-.4c.1-.6-.1-1.2-.5-1.8zm-19.5-2c-2.3 0-4 1.9-4 4.1s1.7 4.1 4 4.1c1.9 0 3.7-1.9 3.7-4.1-.1-2.2-1.8-4.1-3.7-4.1zm-29.9.2c-2.3 0-4 1.9-4 4.1s1.7 4.1 4 4.1c1.9 0 3.7-1.9 3.7-4.1-.1-2.2-1.8-4.1-3.7-4.1z"/><path fill="#4F4F4F" d="M11 13.3H3.5V5.5H0v19.2h3.5v-8H11v8h3.5V5.5H11zm14.6 5.1c0 1.6-1.3 2.9-2.9 2.9s-2.9-1.3-2.9-2.9v-8.3h-3.3v8.3c0 3.4 2.8 6.3 6.3 6.3 3.4 0 6.3-2.8 6.3-6.3v-8.3h-3.3v8.3h-.2zm12.7-8.2c-1.7 0-2.8.5-3.9 1.6V5.5H31v11.8c0 4.4 3.2 7.4 6.8 7.4 4 0 7.5-3.1 7.5-7.2s-3.3-7.3-7-7.3zm.1 11.4c-2.3 0-4-1.9-4-4.1s1.7-4.1 4-4.1c1.9 0 3.7 1.9 3.7 4.1-.1 2.2-1.8 4.1-3.7 4.1zm12.5-10.5c0-1.7 1.1-2.2 2.4-2.2 1 0 2.3.7 3.2 1.7L58.6 8c-1.1-1.5-3.3-2.5-5.1-2.5-3.6 0-6.3 2.1-6.3 5.6 0 6.5 8 4.4 8 8.1 0 1.1-1.1 2.1-2.4 2.1-2 0-2.6-1-3.5-2l-2.4 2.5c1.6 1.9 3.5 2.9 5.8 2.9 3.4 0 6.2-2.1 6.2-5.5 0-7.2-8-5-8-8.1zm24.3 6.2c0-4.1-3.5-7.2-7.5-7.2-3.6 0-6.8 3-6.8 7.4v11.8h3.4v-6.4c1.1 1.1 2.3 1.6 3.9 1.6 3.7 0 7-3.1 7-7.2zm-6.9 4.1c-2.3 0-4-1.9-4-4.1s1.7-4.1 4-4.1c1.9 0 3.7 1.9 3.7 4.1-.1 2.2-1.8 4.1-3.7 4.1zm31.5.2c-2 0-2.5-.9-2.5-2.2v-5.8h3.1v-2.9h-3.1V6.8l-3.4 1.5v11.8c0 3 2.1 4.5 4.9 4.5.4 0 1 0 1.3-.1l.8-3c-.3 0-.7.1-1.1.1z"/><path fill="#F37622" d="M88.3 11.1c-.8-.5-1.7-.8-2.7-.9V6.7c1-.4 1.6-1.3 1.6-2.4 0-1.5-1.2-2.7-2.7-2.7s-2.6 1.2-2.6 2.7c0 1.1.6 2 1.6 2.4v3.5c-.9.1-1.6.4-2.4.7-1.5-1.2-6.5-5-9.5-7.2.1-.3.1-.5.1-.8 0-1.6-1.3-3-3-3-1.6 0-3 1.3-3 3 0 1.6 1.3 3 3 3 .6 0 1.1-.2 1.5-.4l.6.5 8.5 6.1c-.4.4-.8.9-1.2 1.4-.7 1.1-1.1 2.3-1.1 3.5v.3c0 .9.1 1.8.4 2.6.3.7.6 1.3 1.1 1.9l-2.8 2.8c-.2-.1-.5-.1-.8-.1-.6 0-1.2.2-1.6.7-.4.4-.7 1-.7 1.6s.2 1.2.7 1.6c.4.4 1 .7 1.6.7s1.2-.2 1.6-.7c.4-.4.7-1 .7-1.6 0-.2 0-.5-.1-.7l2.9-2.9c.4.3.8.5 1.3.7.9.4 1.9.6 3 .6h.2c1.2 0 2.4-.3 3.5-.9s2-1.5 2.7-2.5c.7-1.1 1.1-2.3 1.1-3.6v-.1c0-1.3-.3-2.5-.9-3.6-.5-1.1-1.4-2-2.6-2.7zm-.9 8.7c-.8.9-1.7 1.4-2.7 1.4h-.2c-.6 0-1.2-.1-1.7-.4-.6-.3-1.1-.8-1.5-1.4s-.6-1.2-.6-1.8v-.2c0-.7.1-1.3.5-1.9.3-.6.8-1.1 1.4-1.5s1.2-.6 2-.6h.1c.6 0 1.3.1 1.8.4.6.3 1.1.7 1.4 1.3.4.6.6 1.2.6 1.8v.4c0 1-.4 1.8-1.1 2.5z"/></svg>