<?xml version="1.0" encoding="UTF-8"?>
<svg width="497px" height="105px" viewBox="0 0 497 105" version="1.1" xmlns="http://www.w3.org/2000/svg" xmlns:xlink="http://www.w3.org/1999/xlink">
    <!-- Generator: Sketch 58 (84663) - https://sketch.com -->
    <title>parkoffice-logo-black</title>
    <desc>Created with Sketch.</desc>
    <g id="Page-1" stroke="none" stroke-width="1" fill="none" fill-rule="evenodd">
        <g id="parkoffice-logo-black" transform="translate(0.000000, 0.000000)" fill-rule="nonzero">
            <path d="M164.148438,43.625 C164.148438,46.1797002 163.750004,48.4413964 162.953125,50.4101562 C162.156246,52.378916 160.996102,54.0371026 159.472657,55.3847656 C157.949211,56.7324286 156.080089,57.7578089 153.865235,58.4609374 C151.65038,59.164066 149.042984,59.515625 146.042969,59.515625 L142.246094,59.515625 L142.246094,74.0351562 C142.246094,74.2695324 142.169923,74.4804678 142.017578,74.6679688 C141.865234,74.8554697 141.613283,75.0078119 141.261719,75.125 C140.910155,75.242188 140.441409,75.3359371 139.855469,75.40625 C139.269529,75.4765628 138.519536,75.5117188 137.605469,75.5117188 C136.71484,75.5117188 135.970706,75.4765628 135.373047,75.40625 C134.775388,75.3359371 134.300783,75.242188 133.949219,75.125 C133.597655,75.0078119 133.351563,74.8554697 133.210938,74.6679688 C133.070312,74.4804678 133,74.2695324 133,74.0351562 L133,33.1132812 C133,32.0117132 133.287107,31.1855496 133.861328,30.6347656 C134.43555,30.0839816 135.191402,29.8085937 136.128907,29.8085937 L146.851563,29.8085937 C147.929693,29.8085937 148.955074,29.8496089 149.927735,29.9316406 C150.900396,30.0136722 152.0664,30.1894517 153.425781,30.4589843 C154.785163,30.7285169 156.162103,31.2265588 157.556641,31.953125 C158.951179,32.6796911 160.14062,33.5996038 161.125,34.7128906 C162.10938,35.8261774 162.859373,37.1269456 163.375,38.6152343 C163.890628,40.103523 164.148438,41.7734282 164.148438,43.625 Z M154.480469,44.2929687 C154.480469,42.6992107 154.199222,41.3867239 153.636719,40.3554687 C153.074216,39.3242135 152.382817,38.5625024 151.5625,38.0703124 C150.742184,37.5781225 149.880864,37.2675787 148.978516,37.1386718 C148.076168,37.0097649 147.144536,36.9453124 146.183594,36.9453124 L142.246094,36.9453124 L142.246094,52.3789062 L146.394531,52.3789062 C147.871101,52.3789062 149.107417,52.1796894 150.103516,51.78125 C151.099615,51.3828105 151.91406,50.8261754 152.546875,50.1113281 C153.179691,49.3964808 153.660155,48.5410206 153.988281,47.5449218 C154.316408,46.5488231 154.480469,45.4648496 154.480469,44.2929687 Z M208.585938,71.8554688 C208.867189,72.6992229 209.042969,73.367185 209.113281,73.859375 C209.183594,74.3515649 209.089845,74.7207018 208.832031,74.9667968 C208.574218,75.2128918 208.117191,75.365234 207.460938,75.4238281 C206.804684,75.4824221 205.90235,75.5117188 204.753907,75.5117188 C203.558588,75.5117188 202.626957,75.4941408 201.958985,75.4589843 C201.291013,75.423828 200.781252,75.3535161 200.429688,75.2480468 C200.078123,75.1425775 199.832032,74.9960947 199.691407,74.8085938 C199.550781,74.6210928 199.433594,74.3750015 199.339844,74.0703124 L196.28125,64.9296874 L179.195313,64.9296874 L176.3125,73.8242188 C176.21875,74.1523453 176.095704,74.4277332 175.94336,74.6503906 C175.791015,74.873048 175.544924,75.0488274 175.205078,75.1777343 C174.865233,75.3066412 174.384769,75.394531 173.763672,75.4414062 C173.142575,75.4882814 172.32813,75.5117188 171.320313,75.5117188 C170.242182,75.5117188 169.398441,75.4765628 168.789063,75.40625 C168.179685,75.3359371 167.757814,75.1660169 167.523438,74.8964843 C167.289062,74.6269517 167.207031,74.2460962 167.277344,73.7539062 C167.347657,73.2617162 167.523436,72.6054728 167.804688,71.7851562 L181.832031,31.4257812 C181.972657,31.0273417 182.136718,30.7050793 182.324219,30.4589843 C182.51172,30.2128893 182.810545,30.0253912 183.220703,29.8964843 C183.630862,29.7675774 184.199215,29.685547 184.925781,29.6503906 C185.652348,29.6152341 186.613276,29.5976562 187.808594,29.5976562 C189.191413,29.5976562 190.292965,29.6152341 191.113281,29.6503906 C191.933598,29.685547 192.572264,29.7675774 193.029297,29.8964843 C193.486331,30.0253912 193.814452,30.2187487 194.013672,30.4765624 C194.212892,30.7343762 194.382812,31.0859352 194.523438,31.53125 L208.585938,71.8554688 Z M187.703125,38.4921874 L187.667969,38.4921874 L181.234375,57.828125 L194.136719,57.828125 L187.703125,38.4921874 Z M248.699219,74.1054688 C248.699219,74.3632825 248.652344,74.5800772 248.558594,74.7558593 C248.464844,74.9316415 248.24219,75.0781244 247.890625,75.1953124 C247.539061,75.3125005 247.023441,75.394531 246.34375,75.4414062 C245.664059,75.4882814 244.738287,75.5117188 243.566407,75.5117188 C242.582027,75.5117188 241.796878,75.4882814 241.210938,75.4414062 C240.624997,75.394531 240.162111,75.3066412 239.822266,75.1777343 C239.48242,75.0488274 239.242188,74.8847666 239.101563,74.6855468 C238.960937,74.4863271 238.843751,74.2460952 238.75,73.9648438 L234.671875,63.8046874 C234.179685,62.6562442 233.699221,61.6367232 233.230469,60.7460937 C232.761717,59.8554642 232.240237,59.1113311 231.666016,58.5136718 C231.091794,57.9160126 230.429692,57.4648452 229.679688,57.1601562 C228.929684,56.8554672 228.062505,56.703125 227.078125,56.703125 L224.195313,56.703125 L224.195313,74.0351562 C224.195313,74.2695324 224.119142,74.4804678 223.966797,74.6679688 C223.814453,74.8554697 223.562502,75.0078119 223.210938,75.125 C222.859373,75.242188 222.390628,75.3359371 221.804688,75.40625 C221.218747,75.4765628 220.468755,75.5117188 219.554688,75.5117188 C218.664058,75.5117188 217.919925,75.4765628 217.322266,75.40625 C216.724607,75.3359371 216.250002,75.242188 215.898438,75.125 C215.546873,75.0078119 215.300782,74.8554697 215.160157,74.6679688 C215.019531,74.4804678 214.949219,74.2695324 214.949219,74.0351562 L214.949219,32.7265624 C214.949219,31.6953073 215.212888,30.9511741 215.740235,30.4941406 C216.267581,30.037107 216.917965,29.8085937 217.691407,29.8085937 L229.46875,29.8085937 C230.664069,29.8085937 231.648434,29.832031 232.421875,29.8789062 C233.195317,29.9257814 233.898435,29.9843746 234.53125,30.0546874 C236.359384,30.3125012 238.005852,30.7578093 239.470703,31.390625 C240.935554,32.0234406 242.17773,32.8496042 243.197266,33.8691406 C244.216802,34.8886769 244.996091,36.0956961 245.535157,37.4902343 C246.074222,38.8847725 246.34375,40.4843659 246.34375,42.2890624 C246.34375,43.8125076 246.150393,45.2011656 245.763672,46.4550781 C245.376951,47.7089906 244.808598,48.82812 244.058594,49.8125 C243.30859,50.7968799 242.382818,51.6523401 241.28125,52.3789062 C240.179682,53.1054723 238.925789,53.691404 237.519531,54.1367187 C238.199222,54.4648453 238.837888,54.8632789 239.435547,55.3320312 C240.033206,55.8007835 240.595701,56.3691372 241.123047,57.0371093 C241.650394,57.7050814 242.148435,58.4667925 242.617188,59.3222656 C243.08594,60.1777386 243.542967,61.1445258 243.988281,62.2226562 L247.820313,71.1875 C248.171877,72.0781294 248.40625,72.7285136 248.523438,73.1386718 C248.640626,73.5488301 248.699219,73.8710925 248.699219,74.1054688 Z M236.78125,43.2382812 C236.78125,41.7382737 236.44141,40.4726614 235.761719,39.4414062 C235.082028,38.410151 233.968758,37.6835958 232.421875,37.2617187 C231.953123,37.1445306 231.419925,37.0507816 230.822266,36.9804687 C230.224607,36.9101558 229.398443,36.875 228.34375,36.875 L224.195313,36.875 L224.195313,49.7773437 L228.90625,49.7773437 C230.218757,49.7773437 231.367183,49.6191422 232.351563,49.3027343 C233.335943,48.9863265 234.156247,48.5410184 234.8125,47.9667968 C235.468754,47.3925752 235.960936,46.7070352 236.289063,45.9101562 C236.617189,45.1132772 236.78125,44.2226611 236.78125,43.2382812 Z M288.707031,73.9296874 C288.707031,74.1875012 288.642579,74.4160146 288.513672,74.6152343 C288.384765,74.8144541 288.138674,74.9785149 287.775391,75.1074218 C287.412108,75.2363287 286.914066,75.3359371 286.28125,75.40625 C285.648435,75.4765628 284.851568,75.5117188 283.890625,75.5117188 C282.36718,75.5117188 281.271488,75.4531255 280.603516,75.3359374 C279.935544,75.2187494 279.45508,75.0429699 279.16211,74.8085938 C278.869139,74.5742175 278.640626,74.2929703 278.476563,73.9648438 L264.730469,52.3789062 L264.730469,73.9648438 C264.730469,74.2226575 264.660157,74.4453115 264.519531,74.6328124 C264.378906,74.8203134 264.132815,74.9785149 263.78125,75.1074218 C263.429686,75.2363287 262.960941,75.3359371 262.375,75.40625 C261.78906,75.4765628 261.039067,75.5117188 260.125,75.5117188 C259.234371,75.5117188 258.490238,75.4765628 257.892578,75.40625 C257.294919,75.3359371 256.820315,75.2363287 256.46875,75.1074218 C256.117186,74.9785149 255.865235,74.8203134 255.712891,74.6328124 C255.560546,74.4453115 255.484375,74.2226575 255.484375,73.9648438 L255.484375,31.109375 C255.484375,30.8515612 255.560546,30.6289071 255.712891,30.4414062 C255.865235,30.2539053 256.117186,30.101563 256.46875,29.984375 C256.820315,29.8671869 257.294919,29.7734378 257.892578,29.703125 C258.490238,29.6328121 259.234371,29.5976562 260.125,29.5976562 C261.039067,29.5976562 261.78906,29.6328121 262.375,29.703125 C262.960941,29.7734378 263.429686,29.8671869 263.78125,29.984375 C264.132815,30.101563 264.378906,30.2539053 264.519531,30.4414062 C264.660157,30.6289071 264.730469,30.8515612 264.730469,31.109375 L264.730469,50.4804687 L278.054688,31.1445312 C278.218751,30.8398422 278.417968,30.5878916 278.652344,30.3886718 C278.88672,30.1894521 279.191405,30.0312505 279.566407,29.9140624 C279.941408,29.7968744 280.421872,29.7148439 281.007813,29.6679687 C281.593753,29.6210935 282.343746,29.5976562 283.257813,29.5976562 C284.195317,29.5976562 284.968747,29.6328121 285.578125,29.703125 C286.187503,29.7734378 286.673827,29.8730462 287.03711,30.0019531 C287.400393,30.13086 287.652343,30.2890615 287.792969,30.4765624 C287.933595,30.6640634 288.003907,30.8749988 288.003907,31.109375 C288.003907,31.5078144 287.898439,31.9179666 287.6875,32.3398437 C287.476562,32.7617208 287.078128,33.4296829 286.492188,34.34375 L274.011719,50.6914062 L287.617188,71.2578124 C288.132815,72.2187548 288.443359,72.8574202 288.548828,73.1738281 C288.654298,73.4902359 288.707031,73.7421865 288.707031,73.9296874 Z" id="PARK" fill="#3B3A39"></path>
            <path d="M337.921875,52.0273437 C337.921875,55.8008002 337.45313,59.1757664 336.515625,62.1523437 C335.578121,65.1289211 334.183603,67.6542865 332.332031,69.7285156 C330.48046,71.8027447 328.189467,73.3847601 325.458985,74.4746093 C322.728502,75.5644585 319.570331,76.109375 315.984375,76.109375 C312.445295,76.109375 309.357435,75.646489 306.720703,74.7207031 C304.083971,73.7949172 301.886728,72.3828219 300.128907,70.484375 C298.371085,68.585928 297.052739,66.1718896 296.173828,63.2421874 C295.294918,60.3124853 294.855469,56.84377 294.855469,52.8359374 C294.855469,49.1562316 295.324214,45.8457178 296.261719,42.9042968 C297.199224,39.9628759 298.593741,37.4609478 300.445313,35.3984374 C302.296885,33.3359271 304.587877,31.7539117 307.31836,30.6523437 C310.048842,29.5507757 313.218732,29 316.828125,29 C320.273455,29 323.31444,29.4570266 325.951172,30.3710937 C328.587904,31.2851608 330.791007,32.6913967 332.560547,34.5898437 C334.330087,36.4882907 335.666011,38.8847511 336.56836,41.7792968 C337.470708,44.6738425 337.921875,48.089824 337.921875,52.0273437 Z M328.21875,52.5195312 C328.21875,50.1288942 328.031252,47.9550879 327.65625,45.9980468 C327.281248,44.0410058 326.642583,42.3652413 325.740235,40.9707031 C324.837886,39.5761649 323.636726,38.4980506 322.136719,37.7363281 C320.636712,36.9746055 318.76173,36.59375 316.511719,36.59375 C314.23827,36.59375 312.339852,37.02148 310.816407,37.8769531 C309.292961,38.7324261 308.062505,39.8749928 307.125,41.3046874 C306.187496,42.7343821 305.525393,44.4042873 305.138672,46.3144531 C304.751951,48.2246189 304.558594,50.246083 304.558594,52.3789062 C304.558594,54.8632936 304.746092,57.0956932 305.121094,59.0761718 C305.496096,61.0566505 306.128902,62.7499929 307.019531,64.15625 C307.910161,65.562507 309.105462,66.6347619 310.605469,67.3730468 C312.105476,68.1113318 313.992176,68.4804688 316.265625,68.4804688 C318.539074,68.4804688 320.437493,68.0585979 321.960938,67.2148438 C323.484383,66.3710895 324.714839,65.2226635 325.652344,63.7695312 C326.589849,62.3163989 327.251951,60.6230565 327.638672,58.6894531 C328.025393,56.7558497 328.21875,54.6992296 328.21875,52.5195312 Z M371.214544,33.6054687 C371.214544,34.3085937 371.185247,34.9003882 371.126653,35.3808593 C371.068059,35.8613305 370.97431,36.242186 370.845403,36.5234374 C370.716496,36.8046889 370.570014,37.0156242 370.40595,37.15625 C370.241887,37.2968757 370.054389,37.3671874 369.84345,37.3671874 L354.972357,37.3671874 L354.972357,49.6015624 L368.929388,49.6015624 C369.140326,49.6015624 369.327824,49.6601556 369.491888,49.7773437 C369.655951,49.8945318 369.802434,50.0937485 369.931341,50.375 C370.060248,50.6562514 370.153997,51.0312476 370.212591,51.5 C370.271185,51.9687523 370.300481,52.5546839 370.300481,53.2578124 C370.300481,53.9609411 370.271185,54.5468726 370.212591,55.015625 C370.153997,55.4843773 370.060248,55.8710922 369.931341,56.1757812 C369.802434,56.4804702 369.655951,56.6972649 369.491888,56.8261718 C369.327824,56.9550787 369.140326,57.0195312 368.929388,57.0195312 L354.972357,57.0195312 L354.972357,73.9648438 C354.972357,74.2226575 354.902045,74.4453115 354.761419,74.6328124 C354.620793,74.8203134 354.368843,74.9785149 354.00556,75.1074218 C353.642277,75.2363287 353.167672,75.3359371 352.581732,75.40625 C351.995791,75.4765628 351.245799,75.5117188 350.331732,75.5117188 C349.441102,75.5117188 348.696969,75.4765628 348.09931,75.40625 C347.50165,75.3359371 347.027046,75.2363287 346.675482,75.1074218 C346.323917,74.9785149 346.071967,74.8203134 345.919622,74.6328124 C345.767278,74.4453115 345.691107,74.2226575 345.691107,73.9648438 L345.691107,32.7265624 C345.691107,31.6953073 345.954776,30.9511741 346.482122,30.4941406 C347.009469,30.037107 347.659853,29.8085937 348.433294,29.8085937 L369.84345,29.8085937 C370.054389,29.8085937 370.241887,29.8730462 370.40595,30.0019531 C370.570014,30.13086 370.716496,30.3417954 370.845403,30.6347656 C370.97431,30.9277358 371.068059,31.32031 371.126653,31.8125 C371.185247,32.3046899 371.214544,32.9023402 371.214544,33.6054687 Z M404.261119,33.6054687 C404.261119,34.3085937 404.231822,34.9003882 404.173228,35.3808593 C404.114634,35.8613305 404.020885,36.242186 403.891978,36.5234374 C403.763071,36.8046889 403.616589,37.0156242 403.452525,37.15625 C403.288462,37.2968757 403.100964,37.3671874 402.890025,37.3671874 L388.018931,37.3671874 L388.018931,49.6015624 L401.975963,49.6015624 C402.186901,49.6015624 402.374399,49.6601556 402.538463,49.7773437 C402.702526,49.8945318 402.849009,50.0937485 402.977916,50.375 C403.106823,50.6562514 403.200572,51.0312476 403.259166,51.5 C403.31776,51.9687523 403.347057,52.5546839 403.347056,53.2578124 C403.347057,53.9609411 403.31776,54.5468726 403.259166,55.015625 C403.200572,55.4843773 403.106823,55.8710922 402.977916,56.1757812 C402.849009,56.4804702 402.702526,56.6972649 402.538463,56.8261718 C402.374399,56.9550787 402.186901,57.0195312 401.975963,57.0195312 L388.018931,57.0195312 L388.018931,73.9648438 C388.018931,74.2226575 387.94862,74.4453115 387.807994,74.6328124 C387.667368,74.8203134 387.415418,74.9785149 387.052135,75.1074218 C386.688852,75.2363287 386.214247,75.3359371 385.628306,75.40625 C385.042366,75.4765628 384.292374,75.5117188 383.378306,75.5117188 C382.487677,75.5117188 381.743544,75.4765628 381.145885,75.40625 C380.548225,75.3359371 380.073621,75.2363287 379.722056,75.1074218 C379.370492,74.9785149 379.118542,74.8203134 378.966197,74.6328124 C378.813853,74.4453115 378.737681,74.2226575 378.737681,73.9648438 L378.737681,32.7265624 C378.737681,31.6953073 379.001351,30.9511741 379.528697,30.4941406 C380.056044,30.037107 380.706428,29.8085937 381.479869,29.8085937 L402.890025,29.8085937 C403.100964,29.8085937 403.288462,29.8730462 403.452525,30.0019531 C403.616589,30.13086 403.763071,30.3417954 403.891978,30.6347656 C404.020885,30.9277358 404.114634,31.32031 404.173228,31.8125 C404.231822,32.3046899 404.261119,32.9023402 404.261119,33.6054687 Z M421.065506,74.0351562 C421.065506,74.2695324 420.989335,74.4804678 420.836991,74.6679688 C420.684646,74.8554697 420.432696,75.0078119 420.081131,75.125 C419.729567,75.242188 419.260822,75.3359371 418.674881,75.40625 C418.088941,75.4765628 417.338949,75.5117188 416.424881,75.5117188 C415.534252,75.5117188 414.790119,75.4765628 414.19246,75.40625 C413.5948,75.3359371 413.120196,75.242188 412.768631,75.125 C412.417067,75.0078119 412.165117,74.8554697 412.012772,74.6679688 C411.860428,74.4804678 411.784256,74.2695324 411.784256,74.0351562 L411.784256,31.0742187 C411.784256,30.8398425 411.860428,30.6289071 412.012772,30.4414062 C412.165117,30.2539053 412.422927,30.101563 412.78621,29.984375 C413.149493,29.8671869 413.624097,29.7734378 414.210038,29.703125 C414.795978,29.6328121 415.534252,29.5976562 416.424881,29.5976562 C417.338949,29.5976562 418.088941,29.6328121 418.674881,29.703125 C419.260822,29.7734378 419.729567,29.8671869 420.081131,29.984375 C420.432696,30.101563 420.684646,30.2539053 420.836991,30.4414062 C420.989335,30.6289071 421.065506,30.8398425 421.065506,31.0742187 L421.065506,74.0351562 Z M462.444113,68.4101562 C462.444113,68.9960966 462.426535,69.4941386 462.391378,69.9042968 C462.356222,70.3144551 462.303488,70.6660141 462.233175,70.9589843 C462.162862,71.2519545 462.069113,71.5039051 461.951925,71.7148438 C461.834737,71.9257823 461.647239,72.1660142 461.389425,72.4355468 C461.131611,72.7050794 460.63357,73.0507791 459.895285,73.4726562 C459.157,73.8945333 458.254665,74.2988261 457.188253,74.6855468 C456.121842,75.0722675 454.903104,75.3945299 453.532003,75.6523438 C452.160903,75.9101575 450.678496,76.0390624 449.084738,76.0390624 C445.967535,76.0390624 443.155063,75.5585985 440.647238,74.5976562 C438.139413,73.636714 436.006622,72.2011814 434.2488,70.2910156 C432.490979,68.3808498 431.143336,65.996108 430.205831,63.1367187 C429.268327,60.2773294 428.799581,56.9492377 428.799581,53.1523437 C428.799581,49.2851369 429.315201,45.8515774 430.346456,42.8515624 C431.377712,39.8515475 432.819103,37.3320414 434.670675,35.2929687 C436.522247,33.253896 438.742928,31.7070365 441.332785,30.6523437 C443.922641,29.5976509 446.776128,29.0703125 449.893331,29.0703125 C451.158963,29.0703125 452.377701,29.1757802 453.549581,29.3867187 C454.721462,29.5976573 455.805436,29.8730451 456.801535,30.2128906 C457.797633,30.552736 458.694109,30.9453102 459.490988,31.390625 C460.287867,31.8359397 460.844502,32.2167952 461.16091,32.5332031 C461.477317,32.8496109 461.694112,33.1132801 461.8113,33.3242187 C461.928488,33.5351573 462.022237,33.8046858 462.09255,34.1328124 C462.162863,34.4609391 462.215597,34.847654 462.250753,35.2929687 C462.28591,35.7382834 462.303488,36.2890592 462.303488,36.9453124 C462.303488,37.648441 462.28005,38.2460912 462.233175,38.7382812 C462.1863,39.2304712 462.10427,39.6289047 461.987081,39.9335937 C461.869893,40.2382827 461.72927,40.4609367 461.565206,40.6015624 C461.401143,40.7421882 461.213645,40.8125 461.002706,40.8125 C460.651142,40.8125 460.205834,40.6074239 459.666769,40.1972656 C459.127704,39.7871073 458.430445,39.3300806 457.574972,38.8261718 C456.719499,38.3222631 455.699978,37.8652364 454.516378,37.4550781 C453.332779,37.0449198 451.920683,36.8398437 450.28005,36.8398437 C448.475354,36.8398437 446.864042,37.2089806 445.446066,37.9472656 C444.02809,38.6855505 442.821071,39.7402275 441.824972,41.1113281 C440.828873,42.4824287 440.073022,44.1406152 439.557394,46.0859374 C439.041766,48.0312597 438.783956,50.222644 438.783956,52.6601562 C438.783956,55.3320446 439.059344,57.6464745 439.610128,59.6035156 C440.160912,61.5605566 440.946061,63.1718686 441.965597,64.4375 C442.985133,65.7031313 444.21559,66.6464812 445.657003,67.2675781 C447.098417,67.8886749 448.721447,68.1992188 450.526144,68.1992188 C452.166777,68.1992188 453.584732,68.0058614 454.78005,67.6191406 C455.975369,67.2324199 457.000749,66.8046898 457.856222,66.3359374 C458.711695,65.8671851 459.414813,65.4453143 459.965597,65.0703125 C460.516381,64.6953106 460.944111,64.5078124 461.2488,64.5078124 C461.483176,64.5078124 461.670675,64.554687 461.8113,64.6484374 C461.951926,64.7421879 462.069112,64.929686 462.162863,65.2109374 C462.256613,65.4921889 462.326925,65.8847631 462.3738,66.3886718 C462.420675,66.8925806 462.444113,67.566402 462.444113,68.4101562 Z M496.053188,71.6796874 C496.053188,72.3593783 496.023891,72.9277321 495.965297,73.3847656 C495.906703,73.8417991 495.818813,74.210936 495.701625,74.4921874 C495.584437,74.7734389 495.437954,74.9785149 495.262172,75.1074218 C495.08639,75.2363287 494.893033,75.3007812 494.682094,75.3007812 L471.830531,75.3007812 C471.05709,75.3007812 470.406706,75.0722679 469.87936,74.6152343 C469.352013,74.1582008 469.088344,73.4140676 469.088344,72.3828124 L469.088344,32.7265624 C469.088344,31.6953073 469.352013,30.9511741 469.87936,30.4941406 C470.406706,30.037107 471.05709,29.8085937 471.830531,29.8085937 L494.541469,29.8085937 C494.752408,29.8085937 494.939906,29.8671869 495.103969,29.984375 C495.268032,30.101563 495.408656,30.3066391 495.525844,30.5996093 C495.643032,30.8925795 495.730922,31.2675758 495.789516,31.7246093 C495.84811,32.1816429 495.877406,32.7617152 495.877406,33.4648437 C495.877406,34.121097 495.84811,34.677732 495.789516,35.1347656 C495.730922,35.5917991 495.643032,35.960936 495.525844,36.2421874 C495.408656,36.5234389 495.268032,36.7285149 495.103969,36.8574218 C494.939906,36.9863287 494.752408,37.0507812 494.541469,37.0507812 L478.299281,37.0507812 L478.299281,48.1601562 L492.045375,48.1601562 C492.256314,48.1601562 492.449671,48.2246087 492.625453,48.3535156 C492.801236,48.4824225 492.947718,48.6816392 493.064906,48.9511718 C493.182095,49.2207044 493.269984,49.583982 493.328578,50.0410156 C493.387172,50.4980491 493.416469,51.0546842 493.416469,51.7109374 C493.416469,52.3906283 493.387172,52.9531227 493.328578,53.3984374 C493.269984,53.8437522 493.182095,54.2011705 493.064906,54.4707031 C492.947718,54.7402357 492.801236,54.9335931 492.625453,55.0507812 C492.449671,55.1679693 492.256314,55.2265624 492.045375,55.2265624 L478.299281,55.2265624 L478.299281,68.0585938 L494.682094,68.0585938 C494.893033,68.0585938 495.08639,68.1230462 495.262172,68.2519531 C495.437954,68.38086 495.584437,68.585936 495.701625,68.8671874 C495.818813,69.1484389 495.906703,69.5175758 495.965297,69.9746093 C496.023891,70.4316429 496.053188,70.9999966 496.053188,71.6796874 Z" id="OFFICE" fill="#0E3F80"></path>
            <g id="Group-10" fill="#0E3F80">
                <path d="M52.5,39.5 C59.5,39.5 65.5,45.5 65.5,52.5 C65.5,59.75 59.5,65.75 52.5,65.75 C45.25,65.75 39.25,59.75 39.25,52.5 C39.25,45.5 45.25,39.5 52.5,39.5 Z M104.75,52.75 C104.75,52.75 104.75,52.75 104.75,52.5 C104.75,23.75 81.25,0.25 52.5,0.25 C23.5,0.25 0,23.75 0,52.5 C0,72 10.75,88.75 26.25,98 C30.25,100.25 34.75,102 39.25,103.25 C39.25,75.25 39.25,75.25 39.25,75.25 C43.25,77.5 47.75,78.75 52.5,78.75 C66.75,78.75 78.5,67 78.5,52.5 C78.5,38.25 66.75,26.5 52.5,26.5 C38,26.5 26.25,38.25 26.25,52.5 C26.25,52.75 26.25,52.75 26.25,52.75 C26.25,81.75 26.25,81.75 26.25,81.75 C18.25,74.5 13.25,64.25 13.25,52.5 C13.25,31 30.75,13.5 52.5,13.5 C74,13.5 91.75,31 91.75,52.5 C91.75,74.25 74,91.75 52.5,91.75 C52.5,105 52.5,105 52.5,105 C68,105 82,98 91.75,87.25 C99.75,78 104.75,66 104.75,52.75 Z" id="Fill-9"></path>
            </g>
        </g>
    </g>
</svg>