<?xml version="1.0" encoding="UTF-8" standalone="no"?><!DOCTYPE svg PUBLIC "-//W3C//DTD SVG 1.1//EN" "http://www.w3.org/Graphics/SVG/1.1/DTD/svg11.dtd"><svg width="100%" height="100%" viewBox="0 0 556 117" version="1.1" xmlns="http://www.w3.org/2000/svg" xmlns:xlink="http://www.w3.org/1999/xlink" xml:space="preserve" style="fill-rule:evenodd;clip-rule:evenodd;stroke-linejoin:round;stroke-miterlimit:1.41421;"><path d="M116.833,58.417c0,32.263 -26.155,58.424 -58.417,58.424c-32.262,0 -58.416,-26.161 -58.416,-58.424c0,-32.263 26.154,-58.417 58.416,-58.417c32.261,0 58.417,26.154 58.417,58.417Z" style="fill:#00aeef;fill-rule:nonzero;"/><path d="M58.775,68.861c0,0 8.071,-24.828 37.351,-33.811c0,0 -11.598,-20.937 -37.761,-20.937c-26.175,0 -37.477,20.011 -37.477,20.011c0,0 25.754,5.469 37.887,34.737Z" style="fill:#fddc4b;fill-rule:nonzero;"/><path d="M59.025,75.478l-2.38,-5.734c-11.493,-27.724 -35.994,-33.312 -36.24,-33.365l-3.06,-0.662l1.535,-2.727c0.489,-0.865 12.276,-21.182 39.484,-21.182c27.209,0 39.277,21.221 39.778,22.125l1.378,2.487l-2.718,0.834c-27.713,8.501 -35.758,32.086 -35.836,32.323l-1.941,5.901Zm-34.43,-42.685c7.022,2.354 23.762,9.888 34.118,30.405c3.857,-7.649 13.538,-22.156 33.85,-29.395c-3.796,-5.263 -14.66,-17.384 -34.198,-17.384c-19.076,0 -29.861,11.265 -33.77,16.374Z" style="fill:#fff;fill-rule:nonzero;"/><path d="M15.135,48.246c0,0 42.064,10.41 32.43,54.473c0.001,0 -42.155,-11.825 -32.43,-54.473Z" style="fill:#e783af;fill-rule:nonzero;"/><path d="M49.296,105.598l-2.353,-0.66c-0.443,-0.124 -44.152,-12.929 -34.055,-57.205l0.522,-2.289l2.279,0.564c0.442,0.109 44.126,11.478 34.128,57.203l-0.521,2.387Zm-32.417,-54.4c-6.093,32.857 20.586,45.421 28.936,48.508c2.894,-16.223 -1.26,-29.336 -12.365,-39.009c-6.249,-5.442 -13.098,-8.295 -16.571,-9.499Z" style="fill:#fff;fill-rule:nonzero;"/><path d="M101.697,48.246c0,0 -42.078,10.41 -32.431,54.473c0,0 42.157,-11.825 32.431,-54.473Z" style="fill:#009f5c;fill-rule:nonzero;"/><path d="M67.537,105.598l-0.522,-2.386c-10.011,-45.726 33.687,-57.094 34.129,-57.204l2.279,-0.564l0.522,2.289c10.097,44.276 -33.613,57.081 -34.056,57.205l-2.352,0.66Zm32.413,-54.42c-8.242,2.781 -34.984,14.542 -28.933,48.528c8.352,-3.088 35.037,-15.66 28.933,-48.528Z" style="fill:#fff;fill-rule:nonzero;"/><path d="M181.65,38.749c0,0.564 -0.03,1.055 -0.089,1.471c-0.06,0.416 -0.156,0.75 -0.29,1.003c-0.134,0.252 -0.297,0.438 -0.49,0.557c-0.194,0.119 -0.409,0.179 -0.646,0.179l-16.222,0l0,50.002c0,0.237 -0.06,0.445 -0.178,0.623c-0.119,0.179 -0.327,0.32 -0.624,0.424c-0.297,0.104 -0.691,0.192 -1.181,0.268c-0.49,0.073 -1.107,0.111 -1.85,0.111c-0.713,0 -1.322,-0.038 -1.827,-0.111c-0.505,-0.075 -0.907,-0.163 -1.203,-0.268c-0.297,-0.104 -0.505,-0.245 -0.624,-0.424c-0.119,-0.178 -0.178,-0.386 -0.178,-0.623l0,-50.002l-16.222,0c-0.238,0 -0.453,-0.06 -0.646,-0.179c-0.194,-0.118 -0.35,-0.305 -0.468,-0.557c-0.119,-0.253 -0.216,-0.587 -0.29,-1.003c-0.074,-0.416 -0.111,-0.906 -0.111,-1.471c0,-0.565 0.037,-1.063 0.111,-1.493c0.074,-0.431 0.171,-0.78 0.29,-1.047c0.119,-0.268 0.274,-0.461 0.468,-0.58c0.193,-0.118 0.408,-0.178 0.646,-0.178l40.108,0c0.238,0 0.453,0.06 0.646,0.178c0.193,0.119 0.356,0.313 0.49,0.58c0.134,0.267 0.229,0.616 0.29,1.047c0.059,0.43 0.09,0.928 0.09,1.493Z" style="fill:#00aeef;fill-rule:nonzero;"/><path d="M215.252,70.212c0,1.158 -0.291,1.983 -0.873,2.474c-0.583,0.49 -1.246,0.735 -1.992,0.735l-26.414,0c0,2.228 0.224,4.233 0.671,6.016c0.448,1.783 1.194,3.313 2.239,4.591c1.044,1.277 2.403,2.258 4.075,2.94c1.672,0.685 3.717,1.025 6.136,1.025c1.911,0 3.612,-0.156 5.104,-0.468c1.493,-0.313 2.784,-0.661 3.874,-1.048c1.089,-0.386 1.985,-0.735 2.687,-1.047c0.702,-0.312 1.232,-0.468 1.59,-0.468c0.209,0 0.395,0.052 0.559,0.156c0.165,0.104 0.291,0.26 0.381,0.468c0.089,0.208 0.157,0.498 0.201,0.869c0.045,0.371 0.068,0.824 0.068,1.358c0,0.387 -0.016,0.721 -0.045,1.003c-0.03,0.283 -0.067,0.535 -0.111,0.758c-0.044,0.223 -0.119,0.424 -0.223,0.602c-0.104,0.179 -0.238,0.35 -0.401,0.513c-0.164,0.163 -0.646,0.431 -1.448,0.802c-0.802,0.372 -1.842,0.735 -3.12,1.092c-1.278,0.356 -2.756,0.676 -4.434,0.959c-1.679,0.281 -3.469,0.423 -5.37,0.423c-3.298,0 -6.188,-0.461 -8.668,-1.382c-2.481,-0.92 -4.568,-2.287 -6.261,-4.1c-1.693,-1.812 -2.971,-4.085 -3.833,-6.818c-0.862,-2.733 -1.292,-5.912 -1.292,-9.537c0,-3.446 0.446,-6.543 1.337,-9.292c0.891,-2.747 2.176,-5.08 3.855,-6.996c1.678,-1.917 3.706,-3.388 6.083,-4.412c2.376,-1.025 5.036,-1.538 7.977,-1.538c3.149,0 5.831,0.506 8.044,1.516c2.213,1.011 4.033,2.37 5.459,4.078c1.426,1.708 2.473,3.714 3.142,6.016c0.668,2.303 1.003,4.762 1.003,7.376l0,1.336Zm-7.398,-2.184c0.089,-3.862 -0.771,-6.893 -2.579,-9.092c-1.808,-2.198 -4.491,-3.298 -8.048,-3.298c-1.824,0 -3.423,0.342 -4.798,1.025c-1.375,0.684 -2.526,1.59 -3.453,2.719c-0.927,1.129 -1.644,2.443 -2.152,3.943c-0.508,1.501 -0.792,3.068 -0.852,4.702l21.882,0l0,0.001Z" style="fill:#00aeef;fill-rule:nonzero;"/><path d="M256.653,92.049c0,0.356 -0.119,0.624 -0.357,0.802c-0.238,0.179 -0.564,0.313 -0.98,0.401c-0.417,0.089 -1.025,0.134 -1.827,0.134c-0.773,0 -1.39,-0.045 -1.85,-0.134c-0.461,-0.089 -0.795,-0.223 -1.003,-0.401c-0.208,-0.178 -0.312,-0.445 -0.312,-0.802l0,-4.011c-1.753,1.871 -3.707,3.327 -5.86,4.367c-2.155,1.039 -4.435,1.56 -6.841,1.56c-2.11,0 -4.019,-0.275 -5.727,-0.824c-1.709,-0.55 -3.164,-1.344 -4.368,-2.385c-1.203,-1.039 -2.139,-2.317 -2.808,-3.832c-0.668,-1.516 -1.002,-3.238 -1.002,-5.17c0,-2.257 0.46,-4.218 1.381,-5.883c0.92,-1.663 2.243,-3.045 3.966,-4.145c1.723,-1.099 3.833,-1.923 6.328,-2.473c2.495,-0.55 5.303,-0.825 8.423,-0.825l5.526,0l0,-3.119c0,-1.544 -0.164,-2.911 -0.49,-4.1c-0.328,-1.188 -0.854,-2.177 -1.583,-2.964c-0.729,-0.787 -1.671,-1.382 -2.83,-1.782c-1.159,-0.401 -2.585,-0.602 -4.278,-0.602c-1.813,0 -3.439,0.216 -4.88,0.646c-1.441,0.432 -2.704,0.907 -3.788,1.427c-1.085,0.52 -1.991,0.995 -2.718,1.426c-0.729,0.431 -1.27,0.646 -1.627,0.646c-0.238,0 -0.445,-0.06 -0.624,-0.179c-0.178,-0.118 -0.334,-0.297 -0.468,-0.535c-0.133,-0.237 -0.23,-0.541 -0.29,-0.913c-0.06,-0.371 -0.089,-0.78 -0.089,-1.226c0,-0.742 0.051,-1.329 0.156,-1.761c0.104,-0.43 0.356,-0.839 0.758,-1.226c0.401,-0.386 1.092,-0.839 2.072,-1.358c0.98,-0.519 2.109,-0.995 3.387,-1.427c1.277,-0.43 2.674,-0.786 4.189,-1.069c1.516,-0.282 3.045,-0.424 4.59,-0.424c2.881,0 5.333,0.328 7.353,0.98c2.021,0.654 3.655,1.612 4.902,2.875c1.248,1.263 2.154,2.83 2.719,4.701c0.564,1.872 0.847,4.056 0.847,6.552l0,27.053l0.003,0Zm-7.31,-18.317l-6.283,0c-2.021,0 -3.773,0.171 -5.259,0.513c-1.486,0.342 -2.719,0.847 -3.699,1.515c-0.98,0.669 -1.701,1.471 -2.161,2.407c-0.461,0.936 -0.691,2.013 -0.691,3.23c0,2.08 0.661,3.736 1.983,4.969c1.321,1.233 3.171,1.85 5.548,1.85c1.931,0 3.721,-0.49 5.37,-1.471c1.649,-0.981 3.379,-2.48 5.191,-4.501l0,-8.512l0.001,0Z" style="fill:#00aeef;fill-rule:nonzero;"/><path d="M298.989,85.898c0,0.506 -0.016,0.943 -0.045,1.314c-0.029,0.372 -0.082,0.685 -0.155,0.937c-0.075,0.253 -0.164,0.476 -0.268,0.668c-0.104,0.193 -0.342,0.476 -0.713,0.847c-0.372,0.372 -1.003,0.832 -1.894,1.382c-0.893,0.55 -1.895,1.04 -3.009,1.471c-1.114,0.431 -2.325,0.78 -3.632,1.047c-1.309,0.268 -2.66,0.401 -4.056,0.401c-2.882,0 -5.437,-0.476 -7.665,-1.426c-2.229,-0.951 -4.093,-2.34 -5.593,-4.167c-1.501,-1.827 -2.645,-4.07 -3.432,-6.729c-0.788,-2.658 -1.181,-5.727 -1.181,-9.202c0,-3.951 0.482,-7.346 1.448,-10.184c0.965,-2.837 2.288,-5.162 3.966,-6.975c1.678,-1.812 3.654,-3.156 5.927,-4.033c2.273,-0.876 4.731,-1.314 7.375,-1.314c1.277,0 2.518,0.119 3.721,0.356c1.203,0.238 2.311,0.551 3.32,0.937c1.009,0.386 1.909,0.832 2.697,1.337c0.786,0.505 1.358,0.936 1.715,1.292c0.357,0.356 0.602,0.64 0.735,0.847c0.134,0.208 0.245,0.453 0.335,0.735c0.088,0.282 0.148,0.602 0.178,0.958c0.03,0.356 0.045,0.803 0.045,1.337c0,1.159 -0.135,1.969 -0.401,2.429c-0.268,0.461 -0.595,0.691 -0.98,0.691c-0.446,0 -0.958,-0.245 -1.538,-0.735c-0.578,-0.49 -1.314,-1.032 -2.205,-1.627c-0.892,-0.594 -1.969,-1.137 -3.231,-1.627c-1.262,-0.49 -2.756,-0.735 -4.479,-0.735c-3.536,0 -6.247,1.359 -8.133,4.078c-1.887,2.719 -2.83,6.662 -2.83,11.832c0,2.585 0.245,4.851 0.735,6.796c0.49,1.946 1.21,3.573 2.162,4.88c0.951,1.308 2.117,2.28 3.499,2.919c1.381,0.64 2.963,0.958 4.746,0.958c1.693,0 3.178,-0.267 4.456,-0.802c1.276,-0.535 2.384,-1.121 3.319,-1.761c0.937,-0.639 1.723,-1.218 2.363,-1.737c0.638,-0.52 1.136,-0.78 1.492,-0.78c0.207,0 0.386,0.06 0.535,0.179c0.148,0.118 0.273,0.319 0.379,0.602c0.104,0.282 0.178,0.639 0.223,1.069c0.045,0.43 0.069,0.942 0.069,1.535Z" style="fill:#00aeef;fill-rule:nonzero;"/><path d="M343.287,92.004c0,0.238 -0.06,0.438 -0.179,0.602c-0.119,0.164 -0.312,0.306 -0.579,0.424c-0.267,0.118 -0.64,0.207 -1.114,0.268c-0.476,0.059 -1.069,0.089 -1.782,0.089c-0.743,0 -1.353,-0.03 -1.827,-0.089c-0.476,-0.061 -0.847,-0.149 -1.114,-0.268c-0.267,-0.119 -0.461,-0.26 -0.579,-0.424c-0.119,-0.163 -0.179,-0.363 -0.179,-0.602l0,-23.485c0,-2.288 -0.179,-4.13 -0.534,-5.526c-0.357,-1.396 -0.877,-2.6 -1.561,-3.609c-0.684,-1.009 -1.566,-1.783 -2.651,-2.317c-1.085,-0.535 -2.339,-0.803 -3.766,-0.803c-1.843,0 -3.685,0.654 -5.526,1.961c-1.842,1.308 -3.773,3.225 -5.793,5.749l0,28.031c0,0.238 -0.061,0.438 -0.179,0.602c-0.118,0.164 -0.312,0.306 -0.579,0.424c-0.267,0.118 -0.639,0.207 -1.114,0.268c-0.476,0.059 -1.085,0.089 -1.827,0.089c-0.713,0 -1.308,-0.03 -1.783,-0.089c-0.475,-0.061 -0.854,-0.149 -1.136,-0.268c-0.282,-0.119 -0.476,-0.26 -0.579,-0.424c-0.104,-0.163 -0.156,-0.363 -0.156,-0.602l0,-59.539c0,-0.237 0.052,-0.445 0.156,-0.624c0.104,-0.178 0.297,-0.326 0.579,-0.445c0.282,-0.118 0.661,-0.207 1.136,-0.268c0.476,-0.059 1.07,-0.089 1.783,-0.089c0.742,0 1.352,0.03 1.827,0.089c0.476,0.061 0.847,0.149 1.114,0.268c0.268,0.119 0.461,0.268 0.579,0.445c0.118,0.179 0.179,0.387 0.179,0.624l0,24.021c2.109,-2.228 4.233,-3.884 6.373,-4.969c2.139,-1.084 4.293,-1.627 6.461,-1.627c2.674,0 4.925,0.454 6.752,1.359c1.827,0.907 3.305,2.117 4.435,3.633c1.128,1.515 1.938,3.29 2.429,5.325c0.491,2.035 0.735,4.494 0.735,7.375l0,24.421l-0.001,0Z" style="fill:#00aeef;fill-rule:nonzero;"/><path d="M395.161,91.87c0,0.238 -0.053,0.453 -0.156,0.646c-0.103,0.193 -0.305,0.35 -0.602,0.468c-0.297,0.119 -0.699,0.215 -1.203,0.29c-0.506,0.073 -1.158,0.111 -1.961,0.111c-1.041,0 -1.887,-0.045 -2.541,-0.134c-0.652,-0.089 -1.143,-0.252 -1.471,-0.49c-0.326,-0.237 -0.594,-0.505 -0.801,-0.802l-21.213,-28.834l0,28.834c0,0.208 -0.061,0.408 -0.18,0.602c-0.119,0.194 -0.326,0.342 -0.623,0.445c-0.297,0.104 -0.691,0.192 -1.182,0.268c-0.49,0.073 -1.107,0.111 -1.85,0.111c-0.713,0 -1.322,-0.038 -1.826,-0.111c-0.506,-0.075 -0.906,-0.163 -1.203,-0.268c-0.297,-0.104 -0.506,-0.252 -0.625,-0.445c-0.119,-0.193 -0.178,-0.394 -0.178,-0.602l0,-55.351c0,-0.237 0.059,-0.445 0.178,-0.623c0.119,-0.179 0.328,-0.319 0.625,-0.424c0.297,-0.104 0.697,-0.193 1.203,-0.268c0.504,-0.073 1.113,-0.111 1.826,-0.111c0.742,0 1.359,0.038 1.85,0.111c0.49,0.074 0.885,0.164 1.182,0.268c0.297,0.104 0.504,0.245 0.623,0.424c0.119,0.178 0.18,0.386 0.18,0.623l0,25.625l20.41,-25.625c0.178,-0.267 0.385,-0.49 0.623,-0.668c0.238,-0.179 0.527,-0.319 0.869,-0.424c0.342,-0.104 0.758,-0.185 1.248,-0.245c0.49,-0.059 1.121,-0.089 1.895,-0.089c0.771,0 1.396,0.038 1.871,0.111c0.475,0.074 0.854,0.172 1.137,0.29c0.283,0.119 0.475,0.268 0.58,0.445c0.104,0.179 0.156,0.372 0.156,0.579c0,0.387 -0.098,0.773 -0.291,1.159c-0.193,0.387 -0.557,0.921 -1.092,1.604l-19.117,22.861l20.588,27.363c0.506,0.772 0.811,1.3 0.914,1.582c0.103,0.282 0.157,0.516 0.157,0.694Z" style="fill:#00aeef;fill-rule:nonzero;"/><path d="M411.471,92.004c0,0.238 -0.061,0.438 -0.178,0.602c-0.119,0.164 -0.313,0.306 -0.58,0.424c-0.267,0.118 -0.639,0.207 -1.113,0.268c-0.477,0.059 -1.086,0.089 -1.828,0.089c-0.713,0 -1.307,-0.03 -1.781,-0.089c-0.477,-0.061 -0.855,-0.149 -1.137,-0.268c-0.283,-0.118 -0.477,-0.26 -0.58,-0.424c-0.104,-0.163 -0.156,-0.363 -0.156,-0.602l0,-59.539c0,-0.237 0.053,-0.445 0.156,-0.624c0.104,-0.178 0.297,-0.326 0.58,-0.445c0.281,-0.118 0.66,-0.207 1.137,-0.268c0.475,-0.059 1.068,-0.089 1.781,-0.089c0.742,0 1.352,0.03 1.828,0.089c0.475,0.061 0.846,0.149 1.113,0.268c0.268,0.119 0.461,0.268 0.58,0.445c0.117,0.179 0.178,0.387 0.178,0.624l0,59.539Z" style="fill:#00aeef;fill-rule:nonzero;"/><path d="M462.364,71.504c0,3.269 -0.43,6.277 -1.291,9.024c-0.863,2.749 -2.148,5.118 -3.855,7.108c-1.709,1.991 -3.848,3.543 -6.418,4.657c-2.57,1.114 -5.547,1.671 -8.936,1.671c-3.297,0 -6.172,-0.49 -8.623,-1.471c-2.451,-0.981 -4.494,-2.406 -6.127,-4.278c-1.635,-1.871 -2.852,-4.145 -3.654,-6.818c-0.802,-2.673 -1.203,-5.704 -1.203,-9.091c0,-3.269 0.424,-6.276 1.27,-9.024c0.848,-2.748 2.123,-5.117 3.832,-7.108c1.709,-1.99 3.84,-3.535 6.396,-4.635c2.555,-1.099 5.539,-1.649 8.957,-1.649c3.297,0 6.172,0.49 8.623,1.471c2.451,0.981 4.494,2.407 6.127,4.278c1.635,1.872 2.859,4.145 3.678,6.818c0.816,2.675 1.224,5.69 1.224,9.047Zm-7.619,0.49c0,-2.168 -0.203,-4.218 -0.607,-6.149c-0.406,-1.932 -1.072,-3.625 -2.002,-5.081c-0.93,-1.455 -2.188,-2.606 -3.777,-3.453c-1.589,-0.847 -3.566,-1.271 -5.936,-1.271c-2.189,0 -4.07,0.387 -5.645,1.159c-1.572,0.772 -2.869,1.864 -3.889,3.275c-1.02,1.411 -1.777,3.082 -2.271,5.014c-0.494,1.932 -0.74,4.04 -0.74,6.328c0,2.198 0.201,4.264 0.605,6.194c0.406,1.932 1.08,3.617 2.023,5.058c0.945,1.441 2.211,2.585 3.801,3.432c1.588,0.847 3.566,1.271 5.936,1.271c2.158,0 4.031,-0.386 5.621,-1.159c1.588,-0.771 2.893,-1.856 3.912,-3.253c1.019,-1.397 1.768,-3.06 2.248,-4.991c0.481,-1.932 0.721,-4.057 0.721,-6.374Z" style="fill:#00aeef;fill-rule:nonzero;"/><path d="M507.551,92.004c0,0.238 -0.051,0.438 -0.154,0.602c-0.105,0.164 -0.291,0.306 -0.559,0.424c-0.268,0.118 -0.617,0.207 -1.047,0.268c-0.432,0.059 -0.957,0.089 -1.582,0.089c-0.684,0 -1.24,-0.03 -1.672,-0.089c-0.43,-0.061 -0.771,-0.149 -1.023,-0.268c-0.254,-0.118 -0.424,-0.26 -0.514,-0.424c-0.088,-0.163 -0.133,-0.363 -0.133,-0.602l0,-5.303c-2.289,2.525 -4.547,4.367 -6.773,5.525c-2.229,1.159 -4.486,1.738 -6.775,1.738c-2.674,0 -4.924,-0.445 -6.75,-1.337c-1.828,-0.892 -3.307,-2.102 -4.436,-3.632c-1.129,-1.53 -1.938,-3.313 -2.428,-5.348c-0.49,-2.035 -0.736,-4.509 -0.736,-7.42l0,-24.333c0,-0.237 0.053,-0.438 0.156,-0.602c0.104,-0.163 0.305,-0.312 0.602,-0.445c0.297,-0.133 0.684,-0.224 1.158,-0.268c0.475,-0.045 1.07,-0.067 1.783,-0.067c0.713,0 1.307,0.022 1.783,0.067c0.475,0.044 0.854,0.134 1.137,0.268c0.281,0.134 0.482,0.282 0.602,0.445c0.117,0.164 0.178,0.364 0.178,0.602l0,23.353c0,2.347 0.17,4.227 0.512,5.637c0.342,1.412 0.861,2.615 1.561,3.61c0.697,0.995 1.582,1.768 2.652,2.317c1.068,0.55 2.316,0.824 3.742,0.824c1.842,0 3.678,-0.653 5.504,-1.961c1.828,-1.307 3.766,-3.224 5.816,-5.749l0,-28.031c0,-0.237 0.051,-0.438 0.156,-0.602c0.104,-0.163 0.303,-0.312 0.602,-0.445c0.297,-0.134 0.674,-0.224 1.135,-0.268c0.461,-0.045 1.063,-0.067 1.807,-0.067c0.713,0 1.307,0.022 1.781,0.067c0.475,0.044 0.848,0.134 1.115,0.268c0.267,0.134 0.467,0.282 0.602,0.445c0.133,0.164 0.199,0.364 0.199,0.602l0,40.11l-0.001,0Z" style="fill:#00aeef;fill-rule:nonzero;"/><path d="M555.505,92.004c0,0.238 -0.051,0.445 -0.154,0.624c-0.105,0.179 -0.283,0.319 -0.535,0.424c-0.254,0.104 -0.588,0.185 -1.004,0.245c-0.416,0.059 -0.92,0.089 -1.514,0.089c-0.625,0 -1.145,-0.03 -1.561,-0.089c-0.416,-0.061 -0.758,-0.142 -1.025,-0.245c-0.268,-0.104 -0.461,-0.245 -0.578,-0.424c-0.119,-0.179 -0.18,-0.386 -0.18,-0.624l0,-5.303c-2.109,2.288 -4.301,4.07 -6.572,5.348c-2.273,1.276 -4.762,1.916 -7.465,1.916c-2.941,0 -5.453,-0.572 -7.531,-1.716c-2.08,-1.144 -3.766,-2.688 -5.059,-4.635c-1.293,-1.945 -2.236,-4.233 -2.83,-6.863c-0.594,-2.629 -0.891,-5.398 -0.891,-8.311c0,-3.446 0.371,-6.559 1.113,-9.337c0.742,-2.777 1.842,-5.147 3.299,-7.108c1.455,-1.96 3.26,-3.468 5.414,-4.522c2.154,-1.054 4.641,-1.583 7.465,-1.583c2.346,0 4.492,0.513 6.439,1.538c1.945,1.024 3.869,2.533 5.771,4.523l0,-23.308c0,-0.208 0.051,-0.408 0.156,-0.602c0.104,-0.193 0.303,-0.342 0.602,-0.445c0.297,-0.104 0.674,-0.193 1.135,-0.268c0.461,-0.075 1.049,-0.111 1.762,-0.111c0.742,0 1.352,0.037 1.826,0.111c0.474,0.074 0.848,0.163 1.115,0.268c0.268,0.104 0.467,0.252 0.602,0.445c0.133,0.193 0.199,0.394 0.199,0.602l0,59.361l0.001,0Zm-7.397,-28.21c-1.992,-2.465 -3.916,-4.345 -5.771,-5.637c-1.857,-1.293 -3.795,-1.938 -5.816,-1.938c-1.871,0 -3.461,0.445 -4.768,1.337c-1.309,0.891 -2.369,2.065 -3.188,3.521c-0.816,1.456 -1.41,3.104 -1.781,4.946c-0.373,1.843 -0.559,3.715 -0.559,5.615c0,2.021 0.156,3.996 0.469,5.928c0.313,1.932 0.854,3.646 1.627,5.146c0.771,1.501 1.797,2.704 3.074,3.61c1.277,0.906 2.883,1.359 4.814,1.359c0.98,0 1.922,-0.134 2.828,-0.401c0.906,-0.267 1.836,-0.713 2.787,-1.337c0.949,-0.624 1.945,-1.434 2.984,-2.429c1.041,-0.995 2.139,-2.221 3.299,-3.677l0,-16.043l0.001,0Z" style="fill:#00aeef;fill-rule:nonzero;"/></svg>